<svg xmlns="http://www.w3.org/2000/svg" width="20" height="20" viewBox="0 0 20 20">
  <g id="call1" opacity="0.58">
    <path id="Path_115" data-name="Path 115" d="M0,0H20V20H0Z" fill="none"/>
    <path id="Path_116" data-name="Path 116" d="M17.063,13.34a9.4,9.4,0,0,1-2.953-.472.844.844,0,0,0-.844.2l-1.82,1.82A12.446,12.446,0,0,1,5.995,9.436l1.82-1.828a.794.794,0,0,0,.207-.827A9.4,9.4,0,0,1,7.55,3.827.83.83,0,0,0,6.723,3h-2.9A.83.83,0,0,0,3,3.827,14.062,14.062,0,0,0,17.063,17.89a.83.83,0,0,0,.827-.827v-2.9A.83.83,0,0,0,17.063,13.34Zm-.827-2.9H17.89A7.446,7.446,0,0,0,10.445,3V4.654A5.786,5.786,0,0,1,16.236,10.445Zm-3.309,0h1.654a4.138,4.138,0,0,0-4.136-4.136V7.963A2.478,2.478,0,0,1,12.927,10.445Z" transform="translate(-0.445 -0.445)" fill="#fff"/>
  </g>
</svg>
